<?xml version="1.0" encoding="UTF-8" standalone="no"?>
<!-- Created with Inkscape (http://www.inkscape.org/) -->

<svg
   width="210mm"
   height="297mm"
   viewBox="0 0 210 297"
   version="1.1"
   id="svg5"
   xml:space="preserve"
   inkscape:version="1.2.2 (732a01da63, 2022-12-09)"
   sodipodi:docname="Meeple.svg"
   xmlns:inkscape="http://www.inkscape.org/namespaces/inkscape"
   xmlns:sodipodi="http://sodipodi.sourceforge.net/DTD/sodipodi-0.dtd"
   xmlns="http://www.w3.org/2000/svg"
   xmlns:svg="http://www.w3.org/2000/svg"><sodipodi:namedview
     id="namedview7"
     pagecolor="#ffffff"
     bordercolor="#000000"
     borderopacity="0.25"
     inkscape:showpageshadow="2"
     inkscape:pageopacity="0.0"
     inkscape:pagecheckerboard="0"
     inkscape:deskcolor="#d1d1d1"
     inkscape:document-units="mm"
     showgrid="false"
     inkscape:zoom="0.914906"
     inkscape:cx="235.54332"
     inkscape:cy="560.71334"
     inkscape:window-width="2560"
     inkscape:window-height="1377"
     inkscape:window-x="-8"
     inkscape:window-y="-8"
     inkscape:window-maximized="1"
     inkscape:current-layer="layer1" /><defs
     id="defs2" /><g
     inkscape:label="Layer 1"
     inkscape:groupmode="layer"
     id="layer1"><path
       style="fill:#000000;stroke-width:0.352778"
       d="m 5.9721121,72.122921 c -0.80375,-0.41028 -0.88171,-0.65223 -0.87925,-2.72883 0.004,-3.74426 2.001,-8.620551 7.4841999,-18.278851 4.79947,-8.45394 5.5679,-10.82404 3.77431,-11.64126 -0.5003,-0.22794 -2.60374,-0.50547 -4.67431,-0.61672 -6.2892699,-0.33792 -8.1608699,-1.15545 -9.3922799,-4.10264 -1.16657,-2.79199 -0.43881,-5.31718 2.33053,-8.08652 2.54163,-2.54163 7.7791899,-5.20182 15.4679099,-7.85623 l 5.46805,-1.88777 0.24338,-2.4149 c 0.69218,-6.8679855 3.11156,-10.6380255 7.64274,-11.9094105 2.57925,-0.7237 4.57907,-0.7237 7.158321,0 4.53118,1.271385 6.95056,5.041425 7.64274,11.9094105 l 0.24338,2.4149 5.46805,1.88777 c 13.52895,4.67067 19.09403,9.13254 18.17503,14.57205 -0.13343,0.78977 -0.58856,1.95558 -1.01139,2.59069 -1.23849,1.86027 -2.89103,2.44043 -7.93762,2.78671 -5.5041,0.37767 -6.4038,0.68983 -6.4038,2.22186 0,1.28497 1.6997,4.9393 5.01698,10.78645 5.18086,9.13198 7.45144,14.789241 7.25989,18.088391 -0.15805,2.72228 -0.12332,2.71417 -11.64723,2.7203 l -9.77731,0.005 -1.1588,-1.02415 c -0.63734,-0.56328 -2.4288,-3.1141 -3.98102,-5.66849 -3.295831,-5.423731 -4.566531,-7.065691 -5.468061,-7.065691 -0.90153,0 -2.17223,1.64196 -5.46805,7.065691 -1.55223,2.55439 -3.34369,5.10521 -3.98103,5.66849 l -1.1588,1.02415 -9.77731,-0.005 c -7.2240299,-0.004 -10.0076199,-0.12277 -10.6592499,-0.4554 z"
       id="path179" /></g></svg>
